IKResults
version=1
nRows=7
nColumns=40
inDegrees=yes

Units are S.I. units (second, meters, Newtons, ...)
Angles are in degrees.

endheader
time	pelvis_tilt	pelvis_list	pelvis_rotation	pelvis_tx	pelvis_ty	pelvis_tz	hip_flexion_r	hip_adduction_r	hip_rotation_r	knee_angle_r	knee_angle_r_beta	ankle_angle_r	subtalar_angle_r	mtp_angle_r	hip_flexion_l	hip_adduction_l	hip_rotation_l	knee_angle_l	knee_angle_l_beta	ankle_angle_l	subtalar_angle_l	mtp_angle_l	lumbar_extension	lumbar_bending	lumbar_rotation	arm_flex_r	arm_add_r	arm_rot_r	elbow_flex_r	pro_sup_r	wrist_flex_r	wrist_dev_r	arm_flex_l	arm_add_l	arm_rot_l	elbow_flex_l	pro_sup_l	wrist_flex_l	wrist_dev_l
      2.49000000	     18.23337244	      2.19021975	      2.03722231	      0.23350959	      0.95418375	      1.02739153	    -21.70701239	      0.91939162	    -11.97382143	    -12.79229338	     -0.22326764	     10.46977432	      0.72652381	     -3.40149649	     -5.98298305	      0.82408251	     13.22335956	    -20.90241060	     -0.36481589	     10.00158507	      8.41806392	      3.07434218	    -24.58591414	     -1.59392928	      0.35925736	      3.18883668	    -12.76946316	     -1.97008013	     36.50651465	     89.95437384	      0.00000000	      0.00000000	      2.71077874	      7.18862123	     13.82703987	     18.38967159	     89.95437384	      0.00000000	      0.00000000
      2.50000000	     18.17357029	      2.44104736	      1.91338710	      0.23884766	      0.95369433	      1.02728517	    -21.91786572	      0.63718079	    -11.67270625	    -13.02598890	     -0.22734639	     10.77763575	      0.44327965	     -3.41088125	     -5.30154151	      0.53007679	     13.54818464	    -20.24633001	     -0.35336512	      9.66900102	      7.05748184	      2.41165907	    -24.54751022	     -1.93043476	      0.35510680	      3.12196604	    -12.85636445	     -1.97865434	     37.15789096	     89.95437384	      0.00000000	      0.00000000	      2.33081794	      7.26904303	     13.87397640	     17.98507718	     89.95437384	      0.00000000	      0.00000000
      2.51000000	     18.19867237	      2.69345132	      1.68426104	      0.24438388	      0.95327051	      1.02733549	    -22.21149186	      0.32377778	    -11.35286764	    -13.24374523	     -0.23114696	     10.99240597	      0.10176428	     -3.42024367	     -4.80126586	      0.25979763	     14.02344469	    -19.56765172	     -0.34151995	      9.14330664	      5.33942670	      1.57727882	    -24.56817223	     -2.31610868	      0.44341726	      3.02030254	    -12.89694684	     -2.08706516	     37.78359933	     89.95437384	      0.00000000	      0.00000000	      1.95733482	      7.35044494	     14.13258783	     17.62865995	     89.95437384	      0.00000000	      0.00000000
      2.52000000	     18.02988597	      2.93620091	      1.62570263	      0.24983939	      0.95246410	      1.02708158	    -22.31007167	      0.07148012	    -11.09985523	    -13.45119916	     -0.23476771	     11.40256012	     -0.18807103	     -3.43674774	     -3.97879516	     -0.04397865	     14.57143066	    -19.00132827	     -0.33163574	      9.21112432	      4.40950215	      1.08694437	    -24.40919855	     -2.64345444	      0.42618921	      2.90722498	    -12.98648679	     -2.01775300	     38.33639506	     89.95437384	      0.00000000	      0.00000000	      1.57848500	      7.44079252	     14.15175897	     17.35799414	     89.95437384	      0.00000000	      0.00000000
      2.53000000	     17.76552379	      2.92424780	      1.58302777	      0.25491410	      0.95152332	      1.02743110	    -22.07639272	      0.07695631	    -11.08275962	    -13.99716462	     -0.24429661	     11.37350429	     -0.30497151	     -3.37663515	     -2.87482967	      0.01083579	     14.62548118	    -18.92835710	     -0.33036215	      9.06449674	      4.19449266	      1.01446852	    -24.19253712	     -2.78213938	      0.35698037	      2.96562371	    -12.91748745	     -2.01440790	     38.72252964	     89.95437384	      0.00000000	      0.00000000	      1.03615208	      7.63008518	     14.08651718	     17.39412170	     89.95437384	      0.00000000	      0.00000000
      2.54000000	     18.15883714	      3.12216791	      1.02497435	      0.26101514	      0.95154006	      1.02755716	    -23.11659699	     -0.11155429	     -9.38289489	    -13.53723551	     -0.23626933	     11.60321605	     -2.24530669	     -2.84847090	     -2.99840746	      0.05639845	     17.01177015	    -17.97716625	     -0.31376074	      7.79016907	      1.29658161	     -9.15429213	    -24.54363395	     -3.16495966	      0.85990210	      2.70273942	    -13.10131339	     -2.08785370	     39.43661651	     89.95437384	      0.00000000	      0.00000000	      0.82880299	      7.57925639	     14.34860871	     16.90957896	     89.95437384	      0.00000000	      0.00000000
      2.55000000	     18.13343931	      3.33372727	      0.74660756	      0.26627804	      0.95093348	      1.02754469	    -23.26301183	     -0.42571240	     -8.95522917	    -13.90007348	     -0.24260205	     11.89505512	     -2.50320605	     -2.85305834	     -2.52693138	     -0.23150970	     17.35518441	    -17.30411620	     -0.30201380	      7.58372052	      0.70042974	     -9.09426969	    -24.56400168	     -3.52186019	      1.01859206	      2.63094298	    -13.13692786	     -2.14006383	     39.93145843	     89.95437384	      0.00000000	      0.00000000	      0.50363111	      7.63154737	     14.48512404	     16.75435440	     89.95437384	      0.00000000	      0.00000000
